<?xml version="1.0" encoding="UTF-8" standalone="no"?>
<!DOCTYPE svg PUBLIC "-//W3C//DTD SVG 1.1//EN"
 "http://www.w3.org/Graphics/SVG/1.1/DTD/svg11.dtd">
<!-- Generated by graphviz version 2.38.0 (20140413.2041)
 -->
<!-- Title: udp_client_server::udp_client::send Pages: 1 -->
<svg width="272pt" height="53pt"
 viewBox="0.00 0.00 272.00 52.50" xmlns="http://www.w3.org/2000/svg" xmlns:xlink="http://www.w3.org/1999/xlink">
<g id="graph0" class="graph" transform="scale(1 1) rotate(0) translate(4 48.5)">
<title>udp_client_server::udp_client::send</title>
<polygon fill="white" stroke="none" points="-4,4 -4,-48.5 268,-48.5 268,4 -4,4"/>
<!-- Node1 -->
<g id="node1" class="node"><title>Node1</title>
<polygon fill="#bfbfbf" stroke="black" points="0,-0.5 0,-30.5 99,-30.5 99,-0.5 0,-0.5"/>
<text text-anchor="start" x="8" y="-18.5" font-family="Helvetica,sans-Serif" font-size="10.00">udp_client_server::</text>
<text text-anchor="middle" x="49.5" y="-7.5" font-family="Helvetica,sans-Serif" font-size="10.00">udp_client::send</text>
</g>
<!-- Node2 -->
<g id="node2" class="node"><title>Node2</title>
<g id="a_node2"><a xlink:href="rollo__comm_8cpp.html#a46c0664a525ae3467335e8ba78396d07" target="_top" xlink:title="Send UDP packets. ">
<polygon fill="white" stroke="black" points="135,-25 135,-44 190,-44 190,-25 135,-25"/>
<text text-anchor="middle" x="162.5" y="-32" font-family="Helvetica,sans-Serif" font-size="10.00">udpSend</text>
</a>
</g>
</g>
<!-- Node1&#45;&gt;Node2 -->
<g id="edge1" class="edge"><title>Node1&#45;&gt;Node2</title>
<path fill="none" stroke="midnightblue" d="M109.272,-25.56C118.206,-27.0893 127.027,-28.5992 134.804,-29.9303"/>
<polygon fill="midnightblue" stroke="midnightblue" points="109.633,-22.0711 99.1862,-23.8337 108.452,-28.9708 109.633,-22.0711"/>
</g>
<!-- Node3 -->
<g id="node3" class="node"><title>Node3</title>
<g id="a_node3"><a xlink:href="rollo__comm_8cpp.html#a3c04138a5bfe5d72780bb7e82a18e627" target="_top" xlink:title="Node main. ">
<polygon fill="white" stroke="black" points="226,-6 226,-25 264,-25 264,-6 226,-6"/>
<text text-anchor="middle" x="245" y="-13" font-family="Helvetica,sans-Serif" font-size="10.00">main</text>
</a>
</g>
</g>
<!-- Node1&#45;&gt;Node3 -->
<g id="edge3" class="edge"><title>Node1&#45;&gt;Node3</title>
<path fill="none" stroke="midnightblue" d="M109.502,-15.5C149.432,-15.5 199.535,-15.5 225.883,-15.5"/>
<polygon fill="midnightblue" stroke="midnightblue" points="109.328,-12.0001 99.3282,-15.5 109.328,-19.0001 109.328,-12.0001"/>
</g>
<!-- Node2&#45;&gt;Node3 -->
<g id="edge2" class="edge"><title>Node2&#45;&gt;Node3</title>
<path fill="none" stroke="midnightblue" d="M200.2,-25.8379C209.136,-23.7287 218.308,-21.564 225.934,-19.764"/>
<polygon fill="midnightblue" stroke="midnightblue" points="199.234,-22.4697 190.305,-28.1733 200.842,-29.2825 199.234,-22.4697"/>
</g>
</g>
</svg>
