<?xml version="1.0" encoding="UTF-8" standalone="no"?>
<!DOCTYPE svg PUBLIC "-//W3C//DTD SVG 1.1//EN"
 "http://www.w3.org/Graphics/SVG/1.1/DTD/svg11.dtd">
<!-- Generated by graphviz version 2.38.0 (20140413.2041)
 -->
<!-- Title: Graphical Class Hierarchy Pages: 1 -->
<svg width="220pt" height="88pt"
 viewBox="0.00 0.00 220.00 88.00" xmlns="http://www.w3.org/2000/svg" xmlns:xlink="http://www.w3.org/1999/xlink">
<g id="graph0" class="graph" transform="scale(1 1) rotate(0) translate(4 84)">
<title>Graphical Class Hierarchy</title>
<polygon fill="white" stroke="none" points="-4,4 -4,-84 216,-84 216,4 -4,4"/>
<!-- Node1 -->
<g id="node1" class="node"><title>Node1</title>
<polygon fill="white" stroke="#bfbfbf" points="0,-30 0,-49 43,-49 43,-30 0,-30"/>
<text text-anchor="middle" x="21.5" y="-37" font-family="Helvetica,sans-Serif" font-size="10.00">object</text>
</g>
<!-- Node2 -->
<g id="node2" class="node"><title>Node2</title>
<g id="a_node2"><a xlink:href="classrollo__visualization_1_1_multi_process_plot.html" target="_top" xlink:title="rollo_visualization.Multi\lProcessPlot">
<polygon fill="white" stroke="black" points="86.5,-49.5 86.5,-79.5 204.5,-79.5 204.5,-49.5 86.5,-49.5"/>
<text text-anchor="start" x="94.5" y="-67.5" font-family="Helvetica,sans-Serif" font-size="10.00">rollo_visualization.Multi</text>
<text text-anchor="middle" x="145.5" y="-56.5" font-family="Helvetica,sans-Serif" font-size="10.00">ProcessPlot</text>
</a>
</g>
</g>
<!-- Node1&#45;&gt;Node2 -->
<g id="edge1" class="edge"><title>Node1&#45;&gt;Node2</title>
<path fill="none" stroke="midnightblue" d="M53.1281,-45.7763C63.2447,-47.8493 74.8575,-50.229 86.3361,-52.5812"/>
<polygon fill="midnightblue" stroke="midnightblue" points="53.6947,-42.3197 43.1956,-43.7409 52.2894,-49.1772 53.6947,-42.3197"/>
</g>
<!-- Node3 -->
<g id="node3" class="node"><title>Node3</title>
<g id="a_node3"><a xlink:href="classrollo__visualization_1_1_process_plotter.html" target="_top" xlink:title="rollo_visualization.Process\lPlotter">
<polygon fill="white" stroke="black" points="79,-0.5 79,-30.5 212,-30.5 212,-0.5 79,-0.5"/>
<text text-anchor="start" x="87" y="-18.5" font-family="Helvetica,sans-Serif" font-size="10.00">rollo_visualization.Process</text>
<text text-anchor="middle" x="145.5" y="-7.5" font-family="Helvetica,sans-Serif" font-size="10.00">Plotter</text>
</a>
</g>
</g>
<!-- Node1&#45;&gt;Node3 -->
<g id="edge2" class="edge"><title>Node1&#45;&gt;Node3</title>
<path fill="none" stroke="midnightblue" d="M53.0628,-33.4876C61.0275,-31.9208 69.923,-30.1709 78.9522,-28.3946"/>
<polygon fill="midnightblue" stroke="midnightblue" points="52.332,-30.0642 43.1956,-35.4287 53.6832,-36.9326 52.332,-30.0642"/>
</g>
</g>
</svg>
