<?xml version="1.0" encoding="UTF-8" standalone="no"?>
<!DOCTYPE svg PUBLIC "-//W3C//DTD SVG 1.1//EN"
 "http://www.w3.org/Graphics/SVG/1.1/DTD/svg11.dtd">
<!-- Generated by graphviz version 2.38.0 (20140413.2041)
 -->
<!-- Title: main Pages: 1 -->
<svg width="241pt" height="268pt"
 viewBox="0.00 0.00 241.00 268.00" xmlns="http://www.w3.org/2000/svg" xmlns:xlink="http://www.w3.org/1999/xlink">
<g id="graph0" class="graph" transform="scale(1 1) rotate(0) translate(4 264)">
<title>main</title>
<polygon fill="white" stroke="none" points="-4,4 -4,-264 237,-264 237,4 -4,4"/>
<!-- Node1 -->
<g id="node1" class="node"><title>Node1</title>
<polygon fill="#bfbfbf" stroke="black" points="0,-114.5 0,-133.5 38,-133.5 38,-114.5 0,-114.5"/>
<text text-anchor="middle" x="19" y="-121.5" font-family="Helvetica,sans-Serif" font-size="10.00">main</text>
</g>
<!-- Node2 -->
<g id="node2" class="node"><title>Node2</title>
<g id="a_node2"><a xlink:href="rollo__ekf_8cpp.html#a52396abb9d94db28c626fab5c6fb2d9f" target="_top" xlink:title="SubscriberCallbackMeasurement. ">
<polygon fill="white" stroke="black" points="74,-240.5 74,-259.5 233,-259.5 233,-240.5 74,-240.5"/>
<text text-anchor="middle" x="153.5" y="-247.5" font-family="Helvetica,sans-Serif" font-size="10.00">subscriberCallbackMeasurement</text>
</a>
</g>
</g>
<!-- Node1&#45;&gt;Node2 -->
<g id="edge1" class="edge"><title>Node1&#45;&gt;Node2</title>
<path fill="none" stroke="midnightblue" d="M22.0137,-133.725C26.9216,-154.887 41.555,-205.272 74,-231 76.1905,-232.737 78.516,-234.319 80.942,-235.759"/>
<polygon fill="midnightblue" stroke="midnightblue" points="79.6004,-239.002 90.1056,-240.378 82.7512,-232.751 79.6004,-239.002"/>
</g>
<!-- Node3 -->
<g id="node3" class="node"><title>Node3</title>
<g id="a_node3"><a xlink:href="rollo__ekf_8cpp.html#ae1074d5c031527169ff7e98a7ee5bf4f" target="_top" xlink:title="subscriberCallbackControl\lInput">
<polygon fill="white" stroke="black" points="88,-191 88,-221 219,-221 219,-191 88,-191"/>
<text text-anchor="start" x="96" y="-209" font-family="Helvetica,sans-Serif" font-size="10.00">subscriberCallbackControl</text>
<text text-anchor="middle" x="153.5" y="-198" font-family="Helvetica,sans-Serif" font-size="10.00">Input</text>
</a>
</g>
</g>
<!-- Node1&#45;&gt;Node3 -->
<g id="edge2" class="edge"><title>Node1&#45;&gt;Node3</title>
<path fill="none" stroke="midnightblue" d="M26.8878,-133.918C36.1824,-146.591 53.9087,-168.394 74,-181 77.3128,-183.079 80.8135,-184.998 84.4242,-186.77"/>
<polygon fill="midnightblue" stroke="midnightblue" points="83.0244,-189.978 93.5814,-190.872 85.8863,-183.589 83.0244,-189.978"/>
</g>
<!-- Node4 -->
<g id="node4" class="node"><title>Node4</title>
<g id="a_node4"><a xlink:href="rollo__ekf_8cpp.html#ab7c91e81d1451df319a3865f1ae1fbe7" target="_top" xlink:title="Linear interpolation of values from measurement (motion capture) ">
<polygon fill="white" stroke="black" points="93,-152.5 93,-171.5 214,-171.5 214,-152.5 93,-152.5"/>
<text text-anchor="middle" x="153.5" y="-159.5" font-family="Helvetica,sans-Serif" font-size="10.00">interpolateMeasurement</text>
</a>
</g>
</g>
<!-- Node1&#45;&gt;Node4 -->
<g id="edge3" class="edge"><title>Node1&#45;&gt;Node4</title>
<path fill="none" stroke="midnightblue" d="M38.3439,-130.972C48.724,-134.786 61.993,-139.444 74,-143 82.214,-145.432 90.9783,-147.786 99.5624,-149.96"/>
<polygon fill="midnightblue" stroke="midnightblue" points="98.9648,-153.417 109.513,-152.423 100.647,-146.622 98.9648,-153.417"/>
</g>
<!-- Node5 -->
<g id="node5" class="node"><title>Node5</title>
<g id="a_node5"><a xlink:href="rollo__ekf_8cpp.html#aab60fd7d761ccf83f3835431433f04b6" target="_top" xlink:title="Linear interpolation of values from odometry. ">
<polygon fill="white" stroke="black" points="101.5,-114.5 101.5,-133.5 205.5,-133.5 205.5,-114.5 101.5,-114.5"/>
<text text-anchor="middle" x="153.5" y="-121.5" font-family="Helvetica,sans-Serif" font-size="10.00">interpolateOdometry</text>
</a>
</g>
</g>
<!-- Node1&#45;&gt;Node5 -->
<g id="edge4" class="edge"><title>Node1&#45;&gt;Node5</title>
<path fill="none" stroke="midnightblue" d="M38.1457,-124C52.0274,-124 72.0226,-124 91.4227,-124"/>
<polygon fill="midnightblue" stroke="midnightblue" points="91.4779,-127.5 101.478,-124 91.4778,-120.5 91.4779,-127.5"/>
</g>
<!-- Node6 -->
<g id="node6" class="node"><title>Node6</title>
<g id="a_node6"><a xlink:href="rollo__ekf_8cpp.html#a0a7fb5aa6464ed1efefad765828d0015" target="_top" xlink:title="Nonlinear state equation function f(x_k&#45;1, u_k&#45;1) ">
<polygon fill="white" stroke="black" points="126,-76.5 126,-95.5 181,-95.5 181,-76.5 126,-76.5"/>
<text text-anchor="middle" x="153.5" y="-83.5" font-family="Helvetica,sans-Serif" font-size="10.00">FSTATE</text>
</a>
</g>
</g>
<!-- Node1&#45;&gt;Node6 -->
<g id="edge5" class="edge"><title>Node1&#45;&gt;Node6</title>
<path fill="none" stroke="midnightblue" d="M38.3439,-117.028C48.724,-113.214 61.993,-108.556 74,-105 87.6066,-100.971 102.723,-97.1579 116.03,-94.02"/>
<polygon fill="midnightblue" stroke="midnightblue" points="116.844,-97.4242 125.797,-91.7596 115.266,-90.6044 116.844,-97.4242"/>
</g>
<!-- Node7 -->
<g id="node7" class="node"><title>Node7</title>
<g id="a_node7"><a xlink:href="rollo__ekf_8cpp.html#acad14776c403d91313295446350809c4" target="_top" xlink:title="Linearization of f(x_k&#45;1, u_k&#45;1) ">
<polygon fill="white" stroke="black" points="106.5,-38.5 106.5,-57.5 200.5,-57.5 200.5,-38.5 106.5,-38.5"/>
<text text-anchor="middle" x="153.5" y="-45.5" font-family="Helvetica,sans-Serif" font-size="10.00">JacobianFSTATE</text>
</a>
</g>
</g>
<!-- Node1&#45;&gt;Node7 -->
<g id="edge6" class="edge"><title>Node1&#45;&gt;Node7</title>
<path fill="none" stroke="midnightblue" d="M26.4421,-114.302C35.5009,-101.456 53.239,-79.0237 74,-67 80.9874,-62.9532 88.8034,-59.7657 96.7216,-57.2555"/>
<polygon fill="midnightblue" stroke="midnightblue" points="97.7154,-60.6118 106.382,-54.5174 95.8065,-53.8771 97.7154,-60.6118"/>
</g>
<!-- Node8 -->
<g id="node8" class="node"><title>Node8</title>
<g id="a_node8"><a xlink:href="rollo__ekf_8cpp.html#a1db8c3c5c87b81f565785543f1ae2048" target="_top" xlink:title="Measurement function h(x_k) ">
<polygon fill="white" stroke="black" points="127,-0.5 127,-19.5 180,-19.5 180,-0.5 127,-0.5"/>
<text text-anchor="middle" x="153.5" y="-7.5" font-family="Helvetica,sans-Serif" font-size="10.00">HMEAS</text>
</a>
</g>
</g>
<!-- Node1&#45;&gt;Node8 -->
<g id="edge7" class="edge"><title>Node1&#45;&gt;Node8</title>
<path fill="none" stroke="midnightblue" d="M22.6144,-114.478C28.4252,-95.1758 44.302,-51.3755 74,-29 86.256,-19.7659 102.379,-14.9546 116.823,-12.4721"/>
<polygon fill="midnightblue" stroke="midnightblue" points="117.549,-15.9045 126.965,-11.0462 116.575,-8.9727 117.549,-15.9045"/>
</g>
</g>
</svg>
