<?xml version="1.0" encoding="UTF-8" standalone="no"?>
<!DOCTYPE svg PUBLIC "-//W3C//DTD SVG 1.1//EN"
 "http://www.w3.org/Graphics/SVG/1.1/DTD/svg11.dtd">
<!-- Generated by graphviz version 2.38.0 (20140413.2041)
 -->
<!-- Title: rollo_preprocessor.cpp Pages: 1 -->
<svg width="877pt" height="84pt"
 viewBox="0.00 0.00 877.00 84.00" xmlns="http://www.w3.org/2000/svg" xmlns:xlink="http://www.w3.org/1999/xlink">
<g id="graph0" class="graph" transform="scale(1 1) rotate(0) translate(4 80)">
<title>rollo_preprocessor.cpp</title>
<polygon fill="white" stroke="none" points="-4,4 -4,-80 873,-80 873,4 -4,4"/>
<!-- Node1 -->
<g id="node1" class="node"><title>Node1</title>
<polygon fill="#bfbfbf" stroke="black" points="480,-56.5 480,-75.5 595,-75.5 595,-56.5 480,-56.5"/>
<text text-anchor="middle" x="537.5" y="-63.5" font-family="Helvetica,sans-Serif" font-size="10.00">rollo_preprocessor.cpp</text>
</g>
<!-- Node2 -->
<g id="node2" class="node"><title>Node2</title>
<polygon fill="white" stroke="#bfbfbf" points="0,-0.5 0,-19.5 55,-19.5 55,-0.5 0,-0.5"/>
<text text-anchor="middle" x="27.5" y="-7.5" font-family="Helvetica,sans-Serif" font-size="10.00">ros/ros.h</text>
</g>
<!-- Node1&#45;&gt;Node2 -->
<g id="edge1" class="edge"><title>Node1&#45;&gt;Node2</title>
<path fill="none" stroke="midnightblue" d="M479.998,-62.2005C392.536,-57.3556 220.742,-45.5403 65.4926,-19.9213"/>
<polygon fill="midnightblue" stroke="midnightblue" points="65.7321,-16.4128 55.2915,-18.2138 64.5765,-23.3168 65.7321,-16.4128"/>
</g>
<!-- Node3 -->
<g id="node3" class="node"><title>Node3</title>
<polygon fill="white" stroke="#bfbfbf" points="73.5,-0.5 73.5,-19.5 169.5,-19.5 169.5,-0.5 73.5,-0.5"/>
<text text-anchor="middle" x="121.5" y="-7.5" font-family="Helvetica,sans-Serif" font-size="10.00">std_msgs/String.h</text>
</g>
<!-- Node1&#45;&gt;Node3 -->
<g id="edge2" class="edge"><title>Node1&#45;&gt;Node3</title>
<path fill="none" stroke="midnightblue" d="M479.911,-58.355C411.019,-50.2774 291.93,-35.9088 179.816,-20.1495"/>
<polygon fill="midnightblue" stroke="midnightblue" points="180.077,-16.6517 169.686,-18.719 179.098,-23.5829 180.077,-16.6517"/>
</g>
<!-- Node4 -->
<g id="node4" class="node"><title>Node4</title>
<polygon fill="white" stroke="#bfbfbf" points="187.5,-0.5 187.5,-19.5 307.5,-19.5 307.5,-0.5 187.5,-0.5"/>
<text text-anchor="middle" x="247.5" y="-7.5" font-family="Helvetica,sans-Serif" font-size="10.00">geometry_msgs/Pose.h</text>
</g>
<!-- Node1&#45;&gt;Node4 -->
<g id="edge3" class="edge"><title>Node1&#45;&gt;Node4</title>
<path fill="none" stroke="midnightblue" d="M491.549,-56.4435C440.429,-46.9246 357.846,-31.5472 303.117,-21.3563"/>
<polygon fill="midnightblue" stroke="midnightblue" points="303.708,-17.9063 293.236,-19.5164 302.427,-24.788 303.708,-17.9063"/>
</g>
<!-- Node5 -->
<g id="node5" class="node"><title>Node5</title>
<polygon fill="white" stroke="#bfbfbf" points="326,-0.5 326,-19.5 459,-19.5 459,-0.5 326,-0.5"/>
<text text-anchor="middle" x="392.5" y="-7.5" font-family="Helvetica,sans-Serif" font-size="10.00">geometry_msgs/Pose2D.h</text>
</g>
<!-- Node1&#45;&gt;Node5 -->
<g id="edge4" class="edge"><title>Node1&#45;&gt;Node5</title>
<path fill="none" stroke="midnightblue" d="M514.524,-56.4435C490.343,-47.4381 452.082,-33.1891 424.854,-23.049"/>
<polygon fill="midnightblue" stroke="midnightblue" points="425.961,-19.7265 415.368,-19.5164 423.518,-26.2864 425.961,-19.7265"/>
</g>
<!-- Node6 -->
<g id="node6" class="node"><title>Node6</title>
<polygon fill="white" stroke="#bfbfbf" points="477.5,-0.5 477.5,-19.5 597.5,-19.5 597.5,-0.5 477.5,-0.5"/>
<text text-anchor="middle" x="537.5" y="-7.5" font-family="Helvetica,sans-Serif" font-size="10.00">rollo/Pose2DStamped.h</text>
</g>
<!-- Node1&#45;&gt;Node6 -->
<g id="edge5" class="edge"><title>Node1&#45;&gt;Node6</title>
<path fill="none" stroke="midnightblue" d="M537.5,-56.083C537.5,-49.0059 537.5,-38.8611 537.5,-29.9865"/>
<polygon fill="midnightblue" stroke="midnightblue" points="541,-29.751 537.5,-19.7511 534,-29.7511 541,-29.751"/>
</g>
<!-- Node7 -->
<g id="node7" class="node"><title>Node7</title>
<polygon fill="white" stroke="#bfbfbf" points="615.5,-0.5 615.5,-19.5 655.5,-19.5 655.5,-0.5 615.5,-0.5"/>
<text text-anchor="middle" x="635.5" y="-7.5" font-family="Helvetica,sans-Serif" font-size="10.00">tf/tf.h</text>
</g>
<!-- Node1&#45;&gt;Node7 -->
<g id="edge6" class="edge"><title>Node1&#45;&gt;Node7</title>
<path fill="none" stroke="midnightblue" d="M553.245,-56.324C568.819,-47.7428 592.877,-34.486 610.959,-24.5224"/>
<polygon fill="midnightblue" stroke="midnightblue" points="612.724,-27.546 619.794,-19.6545 609.346,-21.4152 612.724,-27.546"/>
</g>
<!-- Node8 -->
<g id="node8" class="node"><title>Node8</title>
<polygon fill="white" stroke="#bfbfbf" points="673.5,-0.5 673.5,-19.5 725.5,-19.5 725.5,-0.5 673.5,-0.5"/>
<text text-anchor="middle" x="699.5" y="-7.5" font-family="Helvetica,sans-Serif" font-size="10.00">sstream</text>
</g>
<!-- Node1&#45;&gt;Node8 -->
<g id="edge7" class="edge"><title>Node1&#45;&gt;Node8</title>
<path fill="none" stroke="midnightblue" d="M563.169,-56.4435C590.423,-47.3591 633.684,-32.9388 664.151,-22.7831"/>
<polygon fill="midnightblue" stroke="midnightblue" points="665.571,-25.9992 673.951,-19.5164 663.357,-19.3584 665.571,-25.9992"/>
</g>
<!-- Node9 -->
<g id="node9" class="node"><title>Node9</title>
<polygon fill="white" stroke="#bfbfbf" points="743.5,-0.5 743.5,-19.5 797.5,-19.5 797.5,-0.5 743.5,-0.5"/>
<text text-anchor="middle" x="770.5" y="-7.5" font-family="Helvetica,sans-Serif" font-size="10.00">iostream</text>
</g>
<!-- Node1&#45;&gt;Node9 -->
<g id="edge8" class="edge"><title>Node1&#45;&gt;Node9</title>
<path fill="none" stroke="midnightblue" d="M576.058,-56.4366C613.715,-48.0189 672.909,-34.6438 733.295,-20.2531"/>
<polygon fill="midnightblue" stroke="midnightblue" points="734.475,-23.5697 743.388,-17.841 732.848,-16.7615 734.475,-23.5697"/>
</g>
<!-- Node10 -->
<g id="node10" class="node"><title>Node10</title>
<g id="a_node10"><a xlink:href="rollo_8hpp.html" target="_top" xlink:title="Header file holding Rollo specific parameters and global references for the ROS nodes. ">
<polygon fill="white" stroke="black" points="816,-0.5 816,-19.5 869,-19.5 869,-0.5 816,-0.5"/>
<text text-anchor="middle" x="842.5" y="-7.5" font-family="Helvetica,sans-Serif" font-size="10.00">rollo.hpp</text>
</a>
</g>
</g>
<!-- Node1&#45;&gt;Node10 -->
<g id="edge9" class="edge"><title>Node1&#45;&gt;Node10</title>
<path fill="none" stroke="midnightblue" d="M595.206,-56.6997C647.604,-48.8568 727.21,-36.1805 805.749,-20.0139"/>
<polygon fill="midnightblue" stroke="midnightblue" points="806.74,-23.3828 815.818,-17.9205 805.315,-16.5294 806.74,-23.3828"/>
</g>
</g>
</svg>
