<?xml version="1.0" encoding="UTF-8" standalone="no"?>
<!DOCTYPE svg PUBLIC "-//W3C//DTD SVG 1.1//EN"
 "http://www.w3.org/Graphics/SVG/1.1/DTD/svg11.dtd">
<!-- Generated by graphviz version 2.38.0 (20140413.2041)
 -->
<!-- Title: main Pages: 1 -->
<svg width="147pt" height="66pt"
 viewBox="0.00 0.00 147.00 66.00" xmlns="http://www.w3.org/2000/svg" xmlns:xlink="http://www.w3.org/1999/xlink">
<g id="graph0" class="graph" transform="scale(1 1) rotate(0) translate(4 62)">
<title>main</title>
<polygon fill="white" stroke="none" points="-4,4 -4,-62 143,-62 143,4 -4,4"/>
<!-- Node1 -->
<g id="node1" class="node"><title>Node1</title>
<polygon fill="#bfbfbf" stroke="black" points="0,-19.5 0,-38.5 38,-38.5 38,-19.5 0,-19.5"/>
<text text-anchor="middle" x="19" y="-26.5" font-family="Helvetica,sans-Serif" font-size="10.00">main</text>
</g>
<!-- Node2 -->
<g id="node2" class="node"><title>Node2</title>
<g id="a_node2"><a xlink:href="rollo__control_8cpp.html#a97e9b1fe8d4c010474637a654aad6566" target="_top" xlink:title="Keyboard keystroke. ">
<polygon fill="white" stroke="black" points="87.5,-38.5 87.5,-57.5 125.5,-57.5 125.5,-38.5 87.5,-38.5"/>
<text text-anchor="middle" x="106.5" y="-45.5" font-family="Helvetica,sans-Serif" font-size="10.00">kbhit</text>
</a>
</g>
</g>
<!-- Node1&#45;&gt;Node2 -->
<g id="edge1" class="edge"><title>Node1&#45;&gt;Node2</title>
<path fill="none" stroke="midnightblue" d="M38.1324,-33.0294C49.5814,-35.5736 64.6038,-38.912 77.557,-41.7905"/>
<polygon fill="midnightblue" stroke="midnightblue" points="76.8726,-45.2237 87.3938,-43.9764 78.3912,-38.3904 76.8726,-45.2237"/>
</g>
<!-- Node3 -->
<g id="node3" class="node"><title>Node3</title>
<g id="a_node3"><a xlink:href="rollo__control_8cpp.html#af80674d90dd689526cf57e75f7432d08" target="_top" xlink:title="Decode key. ">
<polygon fill="white" stroke="black" points="74,-0.5 74,-19.5 139,-19.5 139,-0.5 74,-0.5"/>
<text text-anchor="middle" x="106.5" y="-7.5" font-family="Helvetica,sans-Serif" font-size="10.00">decodeKey</text>
</a>
</g>
</g>
<!-- Node1&#45;&gt;Node3 -->
<g id="edge2" class="edge"><title>Node1&#45;&gt;Node3</title>
<path fill="none" stroke="midnightblue" d="M38.1324,-24.9706C45.764,-23.2747 54.9834,-21.2259 64.1194,-19.1957"/>
<polygon fill="midnightblue" stroke="midnightblue" points="64.9185,-22.6036 73.921,-17.0175 63.3999,-15.7703 64.9185,-22.6036"/>
</g>
</g>
</svg>
