<?xml version="1.0" encoding="UTF-8" standalone="no"?>
<!DOCTYPE svg PUBLIC "-//W3C//DTD SVG 1.1//EN"
 "http://www.w3.org/Graphics/SVG/1.1/DTD/svg11.dtd">
<!-- Generated by graphviz version 2.38.0 (20140413.2041)
 -->
<!-- Title: rollo_comm.cpp Pages: 1 -->
<svg width="838pt" height="140pt"
 viewBox="0.00 0.00 838.00 140.00" xmlns="http://www.w3.org/2000/svg" xmlns:xlink="http://www.w3.org/1999/xlink">
<g id="graph0" class="graph" transform="scale(1 1) rotate(0) translate(4 136)">
<title>rollo_comm.cpp</title>
<polygon fill="white" stroke="none" points="-4,4 -4,-136 834,-136 834,4 -4,4"/>
<!-- Node1 -->
<g id="node1" class="node"><title>Node1</title>
<polygon fill="#bfbfbf" stroke="black" points="231.5,-112.5 231.5,-131.5 317.5,-131.5 317.5,-112.5 231.5,-112.5"/>
<text text-anchor="middle" x="274.5" y="-119.5" font-family="Helvetica,sans-Serif" font-size="10.00">rollo_comm.cpp</text>
</g>
<!-- Node2 -->
<g id="node2" class="node"><title>Node2</title>
<polygon fill="white" stroke="#bfbfbf" points="0,-56.5 0,-75.5 55,-75.5 55,-56.5 0,-56.5"/>
<text text-anchor="middle" x="27.5" y="-63.5" font-family="Helvetica,sans-Serif" font-size="10.00">ros/ros.h</text>
</g>
<!-- Node1&#45;&gt;Node2 -->
<g id="edge1" class="edge"><title>Node1&#45;&gt;Node2</title>
<path fill="none" stroke="midnightblue" d="M232.986,-112.456C192.641,-104.074 129.392,-90.7263 65.244,-76.1224"/>
<polygon fill="midnightblue" stroke="midnightblue" points="65.8894,-72.6797 55.3609,-73.8639 64.3299,-79.5038 65.8894,-72.6797"/>
</g>
<!-- Node3 -->
<g id="node3" class="node"><title>Node3</title>
<polygon fill="white" stroke="#bfbfbf" points="73.5,-56.5 73.5,-75.5 125.5,-75.5 125.5,-56.5 73.5,-56.5"/>
<text text-anchor="middle" x="99.5" y="-63.5" font-family="Helvetica,sans-Serif" font-size="10.00">sstream</text>
</g>
<!-- Node1&#45;&gt;Node3 -->
<g id="edge2" class="edge"><title>Node1&#45;&gt;Node3</title>
<path fill="none" stroke="midnightblue" d="M246.771,-112.444C216.638,-103.145 168.389,-88.2572 135.386,-78.0735"/>
<polygon fill="midnightblue" stroke="midnightblue" points="136.258,-74.6797 125.67,-75.0755 134.194,-81.3685 136.258,-74.6797"/>
</g>
<!-- Node4 -->
<g id="node4" class="node"><title>Node4</title>
<polygon fill="white" stroke="#bfbfbf" points="143.5,-56.5 143.5,-75.5 197.5,-75.5 197.5,-56.5 143.5,-56.5"/>
<text text-anchor="middle" x="170.5" y="-63.5" font-family="Helvetica,sans-Serif" font-size="10.00">iostream</text>
</g>
<!-- Node1&#45;&gt;Node4 -->
<g id="edge3" class="edge"><title>Node1&#45;&gt;Node4</title>
<path fill="none" stroke="midnightblue" d="M257.791,-112.324C241.188,-103.703 215.498,-90.3643 196.28,-80.3855"/>
<polygon fill="midnightblue" stroke="midnightblue" points="197.656,-77.1565 187.168,-75.6545 194.43,-83.3689 197.656,-77.1565"/>
</g>
<!-- Node5 -->
<g id="node5" class="node"><title>Node5</title>
<polygon fill="white" stroke="#bfbfbf" points="216,-56.5 216,-75.5 265,-75.5 265,-56.5 216,-56.5"/>
<text text-anchor="middle" x="240.5" y="-63.5" font-family="Helvetica,sans-Serif" font-size="10.00">string.h</text>
</g>
<!-- Node1&#45;&gt;Node5 -->
<g id="edge4" class="edge"><title>Node1&#45;&gt;Node5</title>
<path fill="none" stroke="midnightblue" d="M268.886,-112.083C264.133,-104.534 257.182,-93.4948 251.348,-84.2298"/>
<polygon fill="midnightblue" stroke="midnightblue" points="254.3,-82.3486 246.01,-75.7511 248.376,-86.0783 254.3,-82.3486"/>
</g>
<!-- Node6 -->
<g id="node6" class="node"><title>Node6</title>
<g id="a_node6"><a xlink:href="rollo_8hpp.html" target="_top" xlink:title="Header file holding Rollo specific parameters and global references for the ROS nodes. ">
<polygon fill="white" stroke="black" points="283,-56.5 283,-75.5 336,-75.5 336,-56.5 283,-56.5"/>
<text text-anchor="middle" x="309.5" y="-63.5" font-family="Helvetica,sans-Serif" font-size="10.00">rollo.hpp</text>
</a>
</g>
</g>
<!-- Node1&#45;&gt;Node6 -->
<g id="edge5" class="edge"><title>Node1&#45;&gt;Node6</title>
<path fill="none" stroke="midnightblue" d="M280.28,-112.083C285.172,-104.534 292.327,-93.4948 298.333,-84.2298"/>
<polygon fill="midnightblue" stroke="midnightblue" points="301.326,-86.0463 303.828,-75.7511 295.452,-82.239 301.326,-86.0463"/>
</g>
<!-- Node7 -->
<g id="node7" class="node"><title>Node7</title>
<polygon fill="white" stroke="#bfbfbf" points="354.5,-56.5 354.5,-75.5 476.5,-75.5 476.5,-56.5 354.5,-56.5"/>
<text text-anchor="middle" x="415.5" y="-63.5" font-family="Helvetica,sans-Serif" font-size="10.00">geometry_msgs/Twist.h</text>
</g>
<!-- Node1&#45;&gt;Node7 -->
<g id="edge6" class="edge"><title>Node1&#45;&gt;Node7</title>
<path fill="none" stroke="midnightblue" d="M296.842,-112.444C320.253,-103.478 357.236,-89.314 383.69,-79.1827"/>
<polygon fill="midnightblue" stroke="midnightblue" points="385.176,-82.3615 393.263,-75.5164 382.672,-75.8245 385.176,-82.3615"/>
</g>
<!-- Node8 -->
<g id="node8" class="node"><title>Node8</title>
<polygon fill="white" stroke="#bfbfbf" points="495,-56.5 495,-75.5 596,-75.5 596,-56.5 495,-56.5"/>
<text text-anchor="middle" x="545.5" y="-63.5" font-family="Helvetica,sans-Serif" font-size="10.00">rollo/WheelSpeed.h</text>
</g>
<!-- Node1&#45;&gt;Node8 -->
<g id="edge7" class="edge"><title>Node1&#45;&gt;Node8</title>
<path fill="none" stroke="midnightblue" d="M317.441,-112.444C365.013,-102.964 441.744,-87.6747 492.889,-77.4835"/>
<polygon fill="midnightblue" stroke="midnightblue" points="493.637,-80.9032 502.76,-75.5164 492.269,-74.0382 493.637,-80.9032"/>
</g>
<!-- Node9 -->
<g id="node9" class="node"><title>Node9</title>
<g id="a_node9"><a xlink:href="udp_8h_source.html" target="_top" xlink:title="udp.h">
<polygon fill="white" stroke="black" points="614,-56.5 614,-75.5 655,-75.5 655,-56.5 614,-56.5"/>
<text text-anchor="middle" x="634.5" y="-63.5" font-family="Helvetica,sans-Serif" font-size="10.00">udp.h</text>
</a>
</g>
</g>
<!-- Node1&#45;&gt;Node9 -->
<g id="edge8" class="edge"><title>Node1&#45;&gt;Node9</title>
<path fill="none" stroke="midnightblue" d="M317.749,-117.427C379.42,-111.828 496.235,-99.3641 603.67,-76.1162"/>
<polygon fill="midnightblue" stroke="midnightblue" points="604.689,-79.4758 613.702,-73.9073 603.183,-72.6395 604.689,-79.4758"/>
</g>
<!-- Node10 -->
<g id="node10" class="node"><title>Node10</title>
<polygon fill="white" stroke="#bfbfbf" points="396.5,-0.5 396.5,-19.5 464.5,-19.5 464.5,-0.5 396.5,-0.5"/>
<text text-anchor="middle" x="430.5" y="-7.5" font-family="Helvetica,sans-Serif" font-size="10.00">sys/types.h</text>
</g>
<!-- Node9&#45;&gt;Node10 -->
<g id="edge9" class="edge"><title>Node9&#45;&gt;Node10</title>
<path fill="none" stroke="midnightblue" d="M613.942,-58.483C611.112,-57.626 608.239,-56.7766 605.5,-56 561.138,-43.4207 510.025,-30.4512 474.539,-21.6868"/>
<polygon fill="midnightblue" stroke="midnightblue" points="475.055,-18.2095 464.508,-19.2187 473.383,-25.0068 475.055,-18.2095"/>
</g>
<!-- Node11 -->
<g id="node11" class="node"><title>Node11</title>
<polygon fill="white" stroke="#bfbfbf" points="483,-0.5 483,-19.5 556,-19.5 556,-0.5 483,-0.5"/>
<text text-anchor="middle" x="519.5" y="-7.5" font-family="Helvetica,sans-Serif" font-size="10.00">sys/socket.h</text>
</g>
<!-- Node9&#45;&gt;Node11 -->
<g id="edge10" class="edge"><title>Node9&#45;&gt;Node11</title>
<path fill="none" stroke="midnightblue" d="M616.278,-56.4435C597.604,-47.6751 568.344,-33.9355 546.883,-23.8579"/>
<polygon fill="midnightblue" stroke="midnightblue" points="548.176,-20.5988 537.637,-19.5164 545.201,-26.935 548.176,-20.5988"/>
</g>
<!-- Node12 -->
<g id="node12" class="node"><title>Node12</title>
<polygon fill="white" stroke="#bfbfbf" points="574,-0.5 574,-19.5 623,-19.5 623,-0.5 574,-0.5"/>
<text text-anchor="middle" x="598.5" y="-7.5" font-family="Helvetica,sans-Serif" font-size="10.00">netdb.h</text>
</g>
<!-- Node9&#45;&gt;Node12 -->
<g id="edge11" class="edge"><title>Node9&#45;&gt;Node12</title>
<path fill="none" stroke="midnightblue" d="M628.555,-56.083C623.523,-48.5341 616.163,-37.4948 609.987,-28.2298"/>
<polygon fill="midnightblue" stroke="midnightblue" points="612.793,-26.1301 604.334,-19.7511 606.969,-30.0131 612.793,-26.1301"/>
</g>
<!-- Node13 -->
<g id="node13" class="node"><title>Node13</title>
<polygon fill="white" stroke="#bfbfbf" points="641,-0.5 641,-19.5 700,-19.5 700,-0.5 641,-0.5"/>
<text text-anchor="middle" x="670.5" y="-7.5" font-family="Helvetica,sans-Serif" font-size="10.00">stdexcept</text>
</g>
<!-- Node9&#45;&gt;Node13 -->
<g id="edge12" class="edge"><title>Node9&#45;&gt;Node13</title>
<path fill="none" stroke="midnightblue" d="M640.445,-56.083C645.477,-48.5341 652.837,-37.4948 659.013,-28.2298"/>
<polygon fill="midnightblue" stroke="midnightblue" points="662.031,-30.0131 664.666,-19.7511 656.207,-26.1301 662.031,-30.0131"/>
</g>
<!-- Node14 -->
<g id="node14" class="node"><title>Node14</title>
<polygon fill="white" stroke="#bfbfbf" points="718.5,-0.5 718.5,-19.5 764.5,-19.5 764.5,-0.5 718.5,-0.5"/>
<text text-anchor="middle" x="741.5" y="-7.5" font-family="Helvetica,sans-Serif" font-size="10.00">stdio.h</text>
</g>
<!-- Node9&#45;&gt;Node14 -->
<g id="edge13" class="edge"><title>Node9&#45;&gt;Node14</title>
<path fill="none" stroke="midnightblue" d="M651.691,-56.324C668.851,-47.6641 695.446,-34.2424 715.247,-24.249"/>
<polygon fill="midnightblue" stroke="midnightblue" points="717.001,-27.2847 724.351,-19.6545 713.847,-21.0354 717.001,-27.2847"/>
</g>
<!-- Node15 -->
<g id="node15" class="node"><title>Node15</title>
<polygon fill="white" stroke="#bfbfbf" points="783,-0.5 783,-19.5 830,-19.5 830,-0.5 783,-0.5"/>
<text text-anchor="middle" x="806.5" y="-7.5" font-family="Helvetica,sans-Serif" font-size="10.00">errno.h</text>
</g>
<!-- Node9&#45;&gt;Node15 -->
<g id="edge14" class="edge"><title>Node9&#45;&gt;Node15</title>
<path fill="none" stroke="midnightblue" d="M655.247,-58.4863C684.523,-49.2951 738.273,-32.4202 773.182,-21.4602"/>
<polygon fill="midnightblue" stroke="midnightblue" points="774.435,-24.7353 782.928,-18.4005 772.339,-18.0567 774.435,-24.7353"/>
</g>
</g>
</svg>
