<?xml version="1.0" encoding="UTF-8" standalone="no"?>
<!DOCTYPE svg PUBLIC "-//W3C//DTD SVG 1.1//EN"
 "http://www.w3.org/Graphics/SVG/1.1/DTD/svg11.dtd">
<!-- Generated by graphviz version 2.38.0 (20140413.2041)
 -->
<!-- Title: rollo.hpp Pages: 1 -->
<svg width="424pt" height="84pt"
 viewBox="0.00 0.00 423.50 84.00" xmlns="http://www.w3.org/2000/svg" xmlns:xlink="http://www.w3.org/1999/xlink">
<g id="graph0" class="graph" transform="scale(1 1) rotate(0) translate(4 80)">
<title>rollo.hpp</title>
<polygon fill="white" stroke="none" points="-4,4 -4,-80 419.5,-80 419.5,4 -4,4"/>
<!-- Node1 -->
<g id="node1" class="node"><title>Node1</title>
<polygon fill="#bfbfbf" stroke="black" points="170.5,-56.5 170.5,-75.5 223.5,-75.5 223.5,-56.5 170.5,-56.5"/>
<text text-anchor="middle" x="197" y="-63.5" font-family="Helvetica,sans-Serif" font-size="10.00">rollo.hpp</text>
</g>
<!-- Node2 -->
<g id="node2" class="node"><title>Node2</title>
<g id="a_node2"><a xlink:href="rollo__comm_8cpp.html" target="_top" xlink:title="Communication between ROS and Rollo. ">
<polygon fill="white" stroke="black" points="0,-0.5 0,-19.5 86,-19.5 86,-0.5 0,-0.5"/>
<text text-anchor="middle" x="43" y="-7.5" font-family="Helvetica,sans-Serif" font-size="10.00">rollo_comm.cpp</text>
</a>
</g>
</g>
<!-- Node1&#45;&gt;Node2 -->
<g id="edge1" class="edge"><title>Node1&#45;&gt;Node2</title>
<path fill="none" stroke="midnightblue" d="M162.889,-53.0392C133.913,-42.8786 93.0378,-28.5457 67.2876,-19.5164"/>
<polygon fill="midnightblue" stroke="midnightblue" points="162.003,-56.4373 172.598,-56.4435 164.32,-49.8317 162.003,-56.4373"/>
</g>
<!-- Node3 -->
<g id="node3" class="node"><title>Node3</title>
<g id="a_node3"><a xlink:href="rollo__control_8cpp.html" target="_top" xlink:title="Convert input from keyboard and publish control commands for Rollo. ">
<polygon fill="white" stroke="black" points="104,-0.5 104,-19.5 192,-19.5 192,-0.5 104,-0.5"/>
<text text-anchor="middle" x="148" y="-7.5" font-family="Helvetica,sans-Serif" font-size="10.00">rollo_control.cpp</text>
</a>
</g>
</g>
<!-- Node1&#45;&gt;Node3 -->
<g id="edge2" class="edge"><title>Node1&#45;&gt;Node3</title>
<path fill="none" stroke="midnightblue" d="M181.966,-48.4314C173.378,-38.9673 162.957,-27.4827 155.941,-19.7511"/>
<polygon fill="midnightblue" stroke="midnightblue" points="179.597,-51.0293 188.909,-56.083 184.781,-46.3254 179.597,-51.0293"/>
</g>
<!-- Node4 -->
<g id="node4" class="node"><title>Node4</title>
<g id="a_node4"><a xlink:href="rollo__ekf_8cpp.html" target="_top" xlink:title="EKF implementation for localisation of a robot. ">
<polygon fill="white" stroke="black" points="210,-0.5 210,-19.5 282,-19.5 282,-0.5 210,-0.5"/>
<text text-anchor="middle" x="246" y="-7.5" font-family="Helvetica,sans-Serif" font-size="10.00">rollo_ekf.cpp</text>
</a>
</g>
</g>
<!-- Node1&#45;&gt;Node4 -->
<g id="edge3" class="edge"><title>Node1&#45;&gt;Node4</title>
<path fill="none" stroke="midnightblue" d="M212.034,-48.4314C220.622,-38.9673 231.043,-27.4827 238.059,-19.7511"/>
<polygon fill="midnightblue" stroke="midnightblue" points="209.219,-46.3254 205.091,-56.083 214.403,-51.0293 209.219,-46.3254"/>
</g>
<!-- Node5 -->
<g id="node5" class="node"><title>Node5</title>
<g id="a_node5"><a xlink:href="rollo__preprocessor_8cpp.html" target="_top" xlink:title="Preprocessor for Rollo measurement using Mocap OptiTrack motion capture data. ">
<polygon fill="white" stroke="black" points="300.5,-0.5 300.5,-19.5 415.5,-19.5 415.5,-0.5 300.5,-0.5"/>
<text text-anchor="middle" x="358" y="-7.5" font-family="Helvetica,sans-Serif" font-size="10.00">rollo_preprocessor.cpp</text>
</a>
</g>
</g>
<!-- Node1&#45;&gt;Node5 -->
<g id="edge4" class="edge"><title>Node1&#45;&gt;Node5</title>
<path fill="none" stroke="midnightblue" d="M232.265,-53.172C262.581,-43.0039 305.57,-28.5852 332.608,-19.5164"/>
<polygon fill="midnightblue" stroke="midnightblue" points="230.879,-49.9452 222.511,-56.4435 233.105,-56.5819 230.879,-49.9452"/>
</g>
</g>
</svg>
