<?xml version="1.0" encoding="UTF-8" standalone="no"?>
<!DOCTYPE svg PUBLIC "-//W3C//DTD SVG 1.1//EN"
 "http://www.w3.org/Graphics/SVG/1.1/DTD/svg11.dtd">
<!-- Generated by graphviz version 2.38.0 (20140413.2041)
 -->
<!-- Title: rollo_control.cpp Pages: 1 -->
<svg width="838pt" height="84pt"
 viewBox="0.00 0.00 838.00 84.00" xmlns="http://www.w3.org/2000/svg" xmlns:xlink="http://www.w3.org/1999/xlink">
<g id="graph0" class="graph" transform="scale(1 1) rotate(0) translate(4 80)">
<title>rollo_control.cpp</title>
<polygon fill="white" stroke="none" points="-4,4 -4,-80 834,-80 834,4 -4,4"/>
<!-- Node1 -->
<g id="node1" class="node"><title>Node1</title>
<polygon fill="#bfbfbf" stroke="black" points="448.5,-56.5 448.5,-75.5 536.5,-75.5 536.5,-56.5 448.5,-56.5"/>
<text text-anchor="middle" x="492.5" y="-63.5" font-family="Helvetica,sans-Serif" font-size="10.00">rollo_control.cpp</text>
</g>
<!-- Node2 -->
<g id="node2" class="node"><title>Node2</title>
<polygon fill="white" stroke="#bfbfbf" points="0,-0.5 0,-19.5 55,-19.5 55,-0.5 0,-0.5"/>
<text text-anchor="middle" x="27.5" y="-7.5" font-family="Helvetica,sans-Serif" font-size="10.00">ros/ros.h</text>
</g>
<!-- Node1&#45;&gt;Node2 -->
<g id="edge1" class="edge"><title>Node1&#45;&gt;Node2</title>
<path fill="none" stroke="midnightblue" d="M448.487,-62.3237C372.363,-57.2715 211.092,-44.706 65.3191,-19.9124"/>
<polygon fill="midnightblue" stroke="midnightblue" points="65.746,-16.4344 55.2966,-18.1839 64.5563,-23.3326 65.746,-16.4344"/>
</g>
<!-- Node3 -->
<g id="node3" class="node"><title>Node3</title>
<polygon fill="white" stroke="#bfbfbf" points="73.5,-0.5 73.5,-19.5 195.5,-19.5 195.5,-0.5 73.5,-0.5"/>
<text text-anchor="middle" x="134.5" y="-7.5" font-family="Helvetica,sans-Serif" font-size="10.00">geometry_msgs/Twist.h</text>
</g>
<!-- Node1&#45;&gt;Node3 -->
<g id="edge2" class="edge"><title>Node1&#45;&gt;Node3</title>
<path fill="none" stroke="midnightblue" d="M448.243,-58.3244C386.244,-48.9725 273.054,-31.8992 200.921,-21.0188"/>
<polygon fill="midnightblue" stroke="midnightblue" points="201.435,-17.5568 191.025,-19.5261 200.391,-24.4785 201.435,-17.5568"/>
</g>
<!-- Node4 -->
<g id="node4" class="node"><title>Node4</title>
<polygon fill="white" stroke="#bfbfbf" points="214,-0.5 214,-19.5 345,-19.5 345,-0.5 214,-0.5"/>
<text text-anchor="middle" x="279.5" y="-7.5" font-family="Helvetica,sans-Serif" font-size="10.00">geometry_msgs/Vector3.h</text>
</g>
<!-- Node1&#45;&gt;Node4 -->
<g id="edge3" class="edge"><title>Node1&#45;&gt;Node4</title>
<path fill="none" stroke="midnightblue" d="M458.75,-56.4435C421.982,-47.1221 363.054,-32.1828 322.878,-21.9972"/>
<polygon fill="midnightblue" stroke="midnightblue" points="323.646,-18.5813 313.093,-19.5164 321.926,-25.3666 323.646,-18.5813"/>
</g>
<!-- Node5 -->
<g id="node5" class="node"><title>Node5</title>
<polygon fill="white" stroke="#bfbfbf" points="363.5,-0.5 363.5,-19.5 409.5,-19.5 409.5,-0.5 363.5,-0.5"/>
<text text-anchor="middle" x="386.5" y="-7.5" font-family="Helvetica,sans-Serif" font-size="10.00">stdio.h</text>
</g>
<!-- Node1&#45;&gt;Node5 -->
<g id="edge4" class="edge"><title>Node1&#45;&gt;Node5</title>
<path fill="none" stroke="midnightblue" d="M475.469,-56.324C458.47,-47.6641 432.124,-34.2424 412.507,-24.249"/>
<polygon fill="midnightblue" stroke="midnightblue" points="413.988,-21.0752 403.488,-19.6545 410.81,-27.3125 413.988,-21.0752"/>
</g>
<!-- Node6 -->
<g id="node6" class="node"><title>Node6</title>
<polygon fill="white" stroke="#bfbfbf" points="428,-0.5 428,-19.5 485,-19.5 485,-0.5 428,-0.5"/>
<text text-anchor="middle" x="456.5" y="-7.5" font-family="Helvetica,sans-Serif" font-size="10.00">termios.h</text>
</g>
<!-- Node1&#45;&gt;Node6 -->
<g id="edge5" class="edge"><title>Node1&#45;&gt;Node6</title>
<path fill="none" stroke="midnightblue" d="M486.555,-56.083C481.523,-48.5341 474.163,-37.4948 467.987,-28.2298"/>
<polygon fill="midnightblue" stroke="midnightblue" points="470.793,-26.1301 462.334,-19.7511 464.969,-30.0131 470.793,-26.1301"/>
</g>
<!-- Node7 -->
<g id="node7" class="node"><title>Node7</title>
<polygon fill="white" stroke="#bfbfbf" points="503,-0.5 503,-19.5 554,-19.5 554,-0.5 503,-0.5"/>
<text text-anchor="middle" x="528.5" y="-7.5" font-family="Helvetica,sans-Serif" font-size="10.00">unistd.h</text>
</g>
<!-- Node1&#45;&gt;Node7 -->
<g id="edge6" class="edge"><title>Node1&#45;&gt;Node7</title>
<path fill="none" stroke="midnightblue" d="M498.445,-56.083C503.477,-48.5341 510.837,-37.4948 517.013,-28.2298"/>
<polygon fill="midnightblue" stroke="midnightblue" points="520.031,-30.0131 522.666,-19.7511 514.207,-26.1301 520.031,-30.0131"/>
</g>
<!-- Node8 -->
<g id="node8" class="node"><title>Node8</title>
<polygon fill="white" stroke="#bfbfbf" points="572.5,-0.5 572.5,-19.5 616.5,-19.5 616.5,-0.5 572.5,-0.5"/>
<text text-anchor="middle" x="594.5" y="-7.5" font-family="Helvetica,sans-Serif" font-size="10.00">fcntl.h</text>
</g>
<!-- Node1&#45;&gt;Node8 -->
<g id="edge7" class="edge"><title>Node1&#45;&gt;Node8</title>
<path fill="none" stroke="midnightblue" d="M508.888,-56.324C525.171,-47.7034 550.367,-34.3643 569.216,-24.3855"/>
<polygon fill="midnightblue" stroke="midnightblue" points="570.952,-27.4267 578.153,-19.6545 567.677,-21.2402 570.952,-27.4267"/>
</g>
<!-- Node9 -->
<g id="node9" class="node"><title>Node9</title>
<polygon fill="white" stroke="#bfbfbf" points="634.5,-0.5 634.5,-19.5 686.5,-19.5 686.5,-0.5 634.5,-0.5"/>
<text text-anchor="middle" x="660.5" y="-7.5" font-family="Helvetica,sans-Serif" font-size="10.00">sstream</text>
</g>
<!-- Node1&#45;&gt;Node9 -->
<g id="edge8" class="edge"><title>Node1&#45;&gt;Node9</title>
<path fill="none" stroke="midnightblue" d="M519.12,-56.4435C547.589,-47.2928 592.902,-32.7279 624.531,-22.5614"/>
<polygon fill="midnightblue" stroke="midnightblue" points="625.832,-25.8198 634.281,-19.4275 623.69,-19.1556 625.832,-25.8198"/>
</g>
<!-- Node10 -->
<g id="node10" class="node"><title>Node10</title>
<polygon fill="white" stroke="#bfbfbf" points="704.5,-0.5 704.5,-19.5 758.5,-19.5 758.5,-0.5 704.5,-0.5"/>
<text text-anchor="middle" x="731.5" y="-7.5" font-family="Helvetica,sans-Serif" font-size="10.00">iostream</text>
</g>
<!-- Node1&#45;&gt;Node10 -->
<g id="edge9" class="edge"><title>Node1&#45;&gt;Node10</title>
<path fill="none" stroke="midnightblue" d="M532.63,-56.4365C571.551,-48.0571 632.522,-34.7362 694.448,-20.2022"/>
<polygon fill="midnightblue" stroke="midnightblue" points="695.461,-23.5594 704.392,-17.8597 693.856,-16.7459 695.461,-23.5594"/>
</g>
<!-- Node11 -->
<g id="node11" class="node"><title>Node11</title>
<g id="a_node11"><a xlink:href="rollo_8hpp.html" target="_top" xlink:title="Header file holding Rollo specific parameters and global references for the ROS nodes. ">
<polygon fill="white" stroke="black" points="777,-0.5 777,-19.5 830,-19.5 830,-0.5 777,-0.5"/>
<text text-anchor="middle" x="803.5" y="-7.5" font-family="Helvetica,sans-Serif" font-size="10.00">rollo.hpp</text>
</a>
</g>
</g>
<!-- Node1&#45;&gt;Node11 -->
<g id="edge10" class="edge"><title>Node1&#45;&gt;Node11</title>
<path fill="none" stroke="midnightblue" d="M536.524,-58.9433C589.031,-51.4657 679.635,-37.7622 767.01,-19.9514"/>
<polygon fill="midnightblue" stroke="midnightblue" points="767.732,-23.3763 776.82,-17.9312 766.32,-16.5202 767.732,-23.3763"/>
</g>
</g>
</svg>
