<?xml version="1.0" encoding="UTF-8" standalone="no"?>
<!DOCTYPE svg PUBLIC "-//W3C//DTD SVG 1.1//EN"
 "http://www.w3.org/Graphics/SVG/1.1/DTD/svg11.dtd">
<!-- Generated by graphviz version 2.38.0 (20140413.2041)
 -->
<!-- Title: rollo_ekf.cpp Pages: 1 -->
<svg width="1457pt" height="84pt"
 viewBox="0.00 0.00 1457.00 84.00" xmlns="http://www.w3.org/2000/svg" xmlns:xlink="http://www.w3.org/1999/xlink">
<g id="graph0" class="graph" transform="scale(1 1) rotate(0) translate(4 80)">
<title>rollo_ekf.cpp</title>
<polygon fill="white" stroke="none" points="-4,4 -4,-80 1453,-80 1453,4 -4,4"/>
<!-- Node1 -->
<g id="node1" class="node"><title>Node1</title>
<polygon fill="#bfbfbf" stroke="black" points="743.5,-56.5 743.5,-75.5 815.5,-75.5 815.5,-56.5 743.5,-56.5"/>
<text text-anchor="middle" x="779.5" y="-63.5" font-family="Helvetica,sans-Serif" font-size="10.00">rollo_ekf.cpp</text>
</g>
<!-- Node2 -->
<g id="node2" class="node"><title>Node2</title>
<polygon fill="white" stroke="#bfbfbf" points="0,-0.5 0,-19.5 55,-19.5 55,-0.5 0,-0.5"/>
<text text-anchor="middle" x="27.5" y="-7.5" font-family="Helvetica,sans-Serif" font-size="10.00">ros/ros.h</text>
</g>
<!-- Node1&#45;&gt;Node2 -->
<g id="edge1" class="edge"><title>Node1&#45;&gt;Node2</title>
<path fill="none" stroke="midnightblue" d="M743.176,-64.9603C639.022,-64.3714 330.395,-59.3055 65.4733,-19.85"/>
<polygon fill="midnightblue" stroke="midnightblue" points="65.6864,-16.3426 55.276,-18.3108 64.6416,-23.2642 65.6864,-16.3426"/>
</g>
<!-- Node3 -->
<g id="node3" class="node"><title>Node3</title>
<polygon fill="white" stroke="#bfbfbf" points="73.5,-0.5 73.5,-19.5 169.5,-19.5 169.5,-0.5 73.5,-0.5"/>
<text text-anchor="middle" x="121.5" y="-7.5" font-family="Helvetica,sans-Serif" font-size="10.00">std_msgs/String.h</text>
</g>
<!-- Node1&#45;&gt;Node3 -->
<g id="edge2" class="edge"><title>Node1&#45;&gt;Node3</title>
<path fill="none" stroke="midnightblue" d="M743.499,-63.3345C651.454,-58.8566 399.854,-45.2365 179.788,-20.0579"/>
<polygon fill="midnightblue" stroke="midnightblue" points="180,-16.5592 169.664,-18.8888 179.196,-23.5129 180,-16.5592"/>
</g>
<!-- Node4 -->
<g id="node4" class="node"><title>Node4</title>
<polygon fill="white" stroke="#bfbfbf" points="187.5,-0.5 187.5,-19.5 289.5,-19.5 289.5,-0.5 187.5,-0.5"/>
<text text-anchor="middle" x="238.5" y="-7.5" font-family="Helvetica,sans-Serif" font-size="10.00">std_msgs/Header.h</text>
</g>
<!-- Node1&#45;&gt;Node4 -->
<g id="edge3" class="edge"><title>Node1&#45;&gt;Node4</title>
<path fill="none" stroke="midnightblue" d="M743.223,-62.2991C664.46,-56.2863 471.709,-40.7667 299.539,-20.0643"/>
<polygon fill="midnightblue" stroke="midnightblue" points="299.885,-16.5807 289.537,-18.8528 299.043,-23.5299 299.885,-16.5807"/>
</g>
<!-- Node5 -->
<g id="node5" class="node"><title>Node5</title>
<polygon fill="white" stroke="#bfbfbf" points="307.5,-0.5 307.5,-19.5 427.5,-19.5 427.5,-0.5 307.5,-0.5"/>
<text text-anchor="middle" x="367.5" y="-7.5" font-family="Helvetica,sans-Serif" font-size="10.00">geometry_msgs/Pose.h</text>
</g>
<!-- Node1&#45;&gt;Node5 -->
<g id="edge4" class="edge"><title>Node1&#45;&gt;Node5</title>
<path fill="none" stroke="midnightblue" d="M743.299,-60.2552C675.044,-51.3092 526.253,-31.8074 437.74,-20.2062"/>
<polygon fill="midnightblue" stroke="midnightblue" points="438.153,-16.7305 427.783,-18.9012 437.243,-23.6712 438.153,-16.7305"/>
</g>
<!-- Node6 -->
<g id="node6" class="node"><title>Node6</title>
<polygon fill="white" stroke="#bfbfbf" points="446,-0.5 446,-19.5 579,-19.5 579,-0.5 446,-0.5"/>
<text text-anchor="middle" x="512.5" y="-7.5" font-family="Helvetica,sans-Serif" font-size="10.00">geometry_msgs/Pose2D.h</text>
</g>
<!-- Node1&#45;&gt;Node6 -->
<g id="edge5" class="edge"><title>Node1&#45;&gt;Node6</title>
<path fill="none" stroke="midnightblue" d="M743.491,-57.7173C697.49,-48.4137 617.532,-32.2424 564.811,-21.5797"/>
<polygon fill="midnightblue" stroke="midnightblue" points="565.468,-18.1419 554.973,-19.59 564.081,-25.003 565.468,-18.1419"/>
</g>
<!-- Node7 -->
<g id="node7" class="node"><title>Node7</title>
<polygon fill="white" stroke="#bfbfbf" points="597.5,-0.5 597.5,-19.5 637.5,-19.5 637.5,-0.5 597.5,-0.5"/>
<text text-anchor="middle" x="617.5" y="-7.5" font-family="Helvetica,sans-Serif" font-size="10.00">tf/tf.h</text>
</g>
<!-- Node1&#45;&gt;Node7 -->
<g id="edge6" class="edge"><title>Node1&#45;&gt;Node7</title>
<path fill="none" stroke="midnightblue" d="M753.831,-56.4435C724.974,-46.8247 678.171,-31.2238 647.612,-21.0372"/>
<polygon fill="midnightblue" stroke="midnightblue" points="648.514,-17.6486 637.92,-17.8067 646.3,-24.2894 648.514,-17.6486"/>
</g>
<!-- Node8 -->
<g id="node8" class="node"><title>Node8</title>
<polygon fill="white" stroke="#bfbfbf" points="655.5,-0.5 655.5,-19.5 775.5,-19.5 775.5,-0.5 655.5,-0.5"/>
<text text-anchor="middle" x="715.5" y="-7.5" font-family="Helvetica,sans-Serif" font-size="10.00">rollo/Pose2DStamped.h</text>
</g>
<!-- Node1&#45;&gt;Node8 -->
<g id="edge7" class="edge"><title>Node1&#45;&gt;Node8</title>
<path fill="none" stroke="midnightblue" d="M769.217,-56.324C759.664,-48.2631 745.22,-36.0765 733.716,-26.3695"/>
<polygon fill="midnightblue" stroke="midnightblue" points="735.87,-23.6076 725.97,-19.8339 731.356,-28.9577 735.87,-23.6076"/>
</g>
<!-- Node9 -->
<g id="node9" class="node"><title>Node9</title>
<polygon fill="white" stroke="#bfbfbf" points="794,-0.5 794,-19.5 895,-19.5 895,-0.5 794,-0.5"/>
<text text-anchor="middle" x="844.5" y="-7.5" font-family="Helvetica,sans-Serif" font-size="10.00">rollo/WheelSpeed.h</text>
</g>
<!-- Node1&#45;&gt;Node9 -->
<g id="edge8" class="edge"><title>Node1&#45;&gt;Node9</title>
<path fill="none" stroke="midnightblue" d="M789.943,-56.324C799.646,-48.2631 814.315,-36.0765 826,-26.3695"/>
<polygon fill="midnightblue" stroke="midnightblue" points="828.411,-28.9163 833.867,-19.8339 823.938,-23.532 828.411,-28.9163"/>
</g>
<!-- Node10 -->
<g id="node10" class="node"><title>Node10</title>
<polygon fill="white" stroke="#bfbfbf" points="913,-0.5 913,-19.5 978,-19.5 978,-0.5 913,-0.5"/>
<text text-anchor="middle" x="945.5" y="-7.5" font-family="Helvetica,sans-Serif" font-size="10.00">rollo/EKF.h</text>
</g>
<!-- Node1&#45;&gt;Node10 -->
<g id="edge9" class="edge"><title>Node1&#45;&gt;Node10</title>
<path fill="none" stroke="midnightblue" d="M805.803,-56.4435C833.851,-47.3196 878.444,-32.8133 909.684,-22.6509"/>
<polygon fill="midnightblue" stroke="midnightblue" points="910.893,-25.9383 919.32,-19.5164 908.728,-19.2816 910.893,-25.9383"/>
</g>
<!-- Node11 -->
<g id="node11" class="node"><title>Node11</title>
<polygon fill="white" stroke="#bfbfbf" points="996.5,-0.5 996.5,-19.5 1048.5,-19.5 1048.5,-0.5 996.5,-0.5"/>
<text text-anchor="middle" x="1022.5" y="-7.5" font-family="Helvetica,sans-Serif" font-size="10.00">sstream</text>
</g>
<!-- Node1&#45;&gt;Node11 -->
<g id="edge10" class="edge"><title>Node1&#45;&gt;Node11</title>
<path fill="none" stroke="midnightblue" d="M815.669,-57.6171C855.207,-49.4489 920.668,-35.6416 986.083,-20.27"/>
<polygon fill="midnightblue" stroke="midnightblue" points="987.226,-23.5964 996.154,-17.8909 985.617,-16.784 987.226,-23.5964"/>
</g>
<!-- Node12 -->
<g id="node12" class="node"><title>Node12</title>
<polygon fill="white" stroke="#bfbfbf" points="1066.5,-0.5 1066.5,-19.5 1120.5,-19.5 1120.5,-0.5 1066.5,-0.5"/>
<text text-anchor="middle" x="1093.5" y="-7.5" font-family="Helvetica,sans-Serif" font-size="10.00">iostream</text>
</g>
<!-- Node1&#45;&gt;Node12 -->
<g id="edge11" class="edge"><title>Node1&#45;&gt;Node12</title>
<path fill="none" stroke="midnightblue" d="M815.664,-60.1417C867.007,-53.0274 964.156,-38.768 1056.37,-20.0876"/>
<polygon fill="midnightblue" stroke="midnightblue" points="1057.33,-23.463 1066.43,-18.0281 1055.93,-16.6053 1057.33,-23.463"/>
</g>
<!-- Node13 -->
<g id="node13" class="node"><title>Node13</title>
<polygon fill="white" stroke="#bfbfbf" points="1138.5,-0.5 1138.5,-19.5 1242.5,-19.5 1242.5,-0.5 1138.5,-0.5"/>
<text text-anchor="middle" x="1190.5" y="-7.5" font-family="Helvetica,sans-Serif" font-size="10.00">eigen3/Eigen/Dense</text>
</g>
<!-- Node1&#45;&gt;Node13 -->
<g id="edge12" class="edge"><title>Node1&#45;&gt;Node13</title>
<path fill="none" stroke="midnightblue" d="M815.555,-60.589C877.314,-52.9845 1007.57,-36.7334 1128.12,-20.1695"/>
<polygon fill="midnightblue" stroke="midnightblue" points="1128.84,-23.6043 1138.27,-18.772 1127.88,-16.6698 1128.84,-23.6043"/>
</g>
<!-- Node14 -->
<g id="node14" class="node"><title>Node14</title>
<polygon fill="white" stroke="#bfbfbf" points="1261,-0.5 1261,-19.5 1378,-19.5 1378,-0.5 1261,-0.5"/>
<text text-anchor="middle" x="1319.5" y="-7.5" font-family="Helvetica,sans-Serif" font-size="10.00">eigen3/Eigen/Cholesky</text>
</g>
<!-- Node1&#45;&gt;Node14 -->
<g id="edge13" class="edge"><title>Node1&#45;&gt;Node14</title>
<path fill="none" stroke="midnightblue" d="M815.668,-62.0056C893.243,-55.4853 1081.6,-39.132 1250.82,-20.0369"/>
<polygon fill="midnightblue" stroke="midnightblue" points="1251.37,-23.4974 1260.91,-18.8925 1250.58,-16.542 1251.37,-23.4974"/>
</g>
<!-- Node15 -->
<g id="node15" class="node"><title>Node15</title>
<g id="a_node15"><a xlink:href="rollo_8hpp.html" target="_top" xlink:title="Header file holding Rollo specific parameters and global references for the ROS nodes. ">
<polygon fill="white" stroke="black" points="1396,-0.5 1396,-19.5 1449,-19.5 1449,-0.5 1396,-0.5"/>
<text text-anchor="middle" x="1422.5" y="-7.5" font-family="Helvetica,sans-Serif" font-size="10.00">rollo.hpp</text>
</a>
</g>
</g>
<!-- Node1&#45;&gt;Node15 -->
<g id="edge14" class="edge"><title>Node1&#45;&gt;Node15</title>
<path fill="none" stroke="midnightblue" d="M815.742,-64.5588C908.966,-62.9482 1164.7,-55.5235 1385.69,-20.0298"/>
<polygon fill="midnightblue" stroke="midnightblue" points="1386.54,-23.4364 1395.85,-18.3733 1385.42,-16.5276 1386.54,-23.4364"/>
</g>
</g>
</svg>
