<?xml version="1.0" encoding="UTF-8" standalone="no"?>
<!DOCTYPE svg PUBLIC "-//W3C//DTD SVG 1.1//EN"
 "http://www.w3.org/Graphics/SVG/1.1/DTD/svg11.dtd">
<!-- Generated by graphviz version 2.38.0 (20140413.2041)
 -->
<!-- Title: main Pages: 1 -->
<svg width="358pt" height="142pt"
 viewBox="0.00 0.00 358.00 142.00" xmlns="http://www.w3.org/2000/svg" xmlns:xlink="http://www.w3.org/1999/xlink">
<g id="graph0" class="graph" transform="scale(1 1) rotate(0) translate(4 138)">
<title>main</title>
<polygon fill="white" stroke="none" points="-4,4 -4,-138 354,-138 354,4 -4,4"/>
<!-- Node1 -->
<g id="node1" class="node"><title>Node1</title>
<polygon fill="#bfbfbf" stroke="black" points="0,-57.5 0,-76.5 38,-76.5 38,-57.5 0,-57.5"/>
<text text-anchor="middle" x="19" y="-64.5" font-family="Helvetica,sans-Serif" font-size="10.00">main</text>
</g>
<!-- Node2 -->
<g id="node2" class="node"><title>Node2</title>
<g id="a_node2"><a xlink:href="rollo__comm_8cpp.html#aed7376fac78c6c864f69338bd09e3133" target="_top" xlink:title="Subscriber callback from control node. ">
<polygon fill="white" stroke="black" points="94.5,-114.5 94.5,-133.5 194.5,-133.5 194.5,-114.5 94.5,-114.5"/>
<text text-anchor="middle" x="144.5" y="-121.5" font-family="Helvetica,sans-Serif" font-size="10.00">subscriberCallback</text>
</a>
</g>
</g>
<!-- Node1&#45;&gt;Node2 -->
<g id="edge1" class="edge"><title>Node1&#45;&gt;Node2</title>
<path fill="none" stroke="midnightblue" d="M33.7464,-76.5484C44.3921,-83.6555 59.6892,-93.2536 74,-100 82.649,-104.077 92.1869,-107.823 101.353,-111.083"/>
<polygon fill="midnightblue" stroke="midnightblue" points="100.499,-114.49 111.094,-114.422 102.769,-107.868 100.499,-114.49"/>
</g>
<!-- Node4 -->
<g id="node4" class="node"><title>Node4</title>
<g id="a_node4"><a xlink:href="classudp__client__server_1_1udp__client.html#ac296d1fb6a6006bec5f8f14a81367d0a" target="_top" xlink:title="Send a message through this UDP client. ">
<polygon fill="white" stroke="black" points="251,-49 251,-79 350,-79 350,-49 251,-49"/>
<text text-anchor="start" x="259" y="-67" font-family="Helvetica,sans-Serif" font-size="10.00">udp_client_server::</text>
<text text-anchor="middle" x="300.5" y="-56" font-family="Helvetica,sans-Serif" font-size="10.00">udp_client::send</text>
</a>
</g>
</g>
<!-- Node1&#45;&gt;Node4 -->
<g id="edge3" class="edge"><title>Node1&#45;&gt;Node4</title>
<path fill="none" stroke="midnightblue" d="M38.0142,-67.2134C72.4155,-67.5736 149.841,-68.1563 215,-67 223.334,-66.8521 232.128,-66.6222 240.768,-66.354"/>
<polygon fill="midnightblue" stroke="midnightblue" points="240.923,-69.8509 250.803,-66.0242 240.693,-62.8547 240.923,-69.8509"/>
</g>
<!-- Node5 -->
<g id="node5" class="node"><title>Node5</title>
<g id="a_node5"><a xlink:href="rollo__comm_8cpp.html#a46c0664a525ae3467335e8ba78396d07" target="_top" xlink:title="Send UDP packets. ">
<polygon fill="white" stroke="black" points="117,-38.5 117,-57.5 172,-57.5 172,-38.5 117,-38.5"/>
<text text-anchor="middle" x="144.5" y="-45.5" font-family="Helvetica,sans-Serif" font-size="10.00">udpSend</text>
</a>
</g>
</g>
<!-- Node1&#45;&gt;Node5 -->
<g id="edge4" class="edge"><title>Node1&#45;&gt;Node5</title>
<path fill="none" stroke="midnightblue" d="M38.2229,-64.1965C56.2604,-61.4215 84.3796,-57.0954 107.021,-53.6122"/>
<polygon fill="midnightblue" stroke="midnightblue" points="107.631,-57.0596 116.982,-52.0796 106.567,-50.141 107.631,-57.0596"/>
</g>
<!-- Node6 -->
<g id="node6" class="node"><title>Node6</title>
<g id="a_node6"><a xlink:href="rollo__comm_8cpp.html#af756e338ef4741c56e65779cad33d03d" target="_top" xlink:title="Assign left and right wheel velocity estimates for a given velocity command. ">
<polygon fill="white" stroke="black" points="74,-0.5 74,-19.5 215,-19.5 215,-0.5 74,-0.5"/>
<text text-anchor="middle" x="144.5" y="-7.5" font-family="Helvetica,sans-Serif" font-size="10.00">EstimateFeedbackVelocities</text>
</a>
</g>
</g>
<!-- Node1&#45;&gt;Node6 -->
<g id="edge6" class="edge"><title>Node1&#45;&gt;Node6</title>
<path fill="none" stroke="midnightblue" d="M31.2797,-57.2909C41.7308,-48.7439 58.0278,-36.5201 74,-29 78.9512,-26.6688 84.24,-24.5796 89.6063,-22.7175"/>
<polygon fill="midnightblue" stroke="midnightblue" points="90.8414,-25.9971 99.2933,-19.6082 88.702,-19.332 90.8414,-25.9971"/>
</g>
<!-- Node3 -->
<g id="node3" class="node"><title>Node3</title>
<g id="a_node3"><a xlink:href="rollo__comm_8cpp.html#ae08ba04eb54f1f3f17f135034452e92c" target="_top" xlink:title="Decode linear and angular velocities. ">
<polygon fill="white" stroke="black" points="255,-114.5 255,-133.5 346,-133.5 346,-114.5 255,-114.5"/>
<text text-anchor="middle" x="300.5" y="-121.5" font-family="Helvetica,sans-Serif" font-size="10.00">decodeVelocities</text>
</a>
</g>
</g>
<!-- Node2&#45;&gt;Node3 -->
<g id="edge2" class="edge"><title>Node2&#45;&gt;Node3</title>
<path fill="none" stroke="midnightblue" d="M194.65,-124C210.536,-124 228.25,-124 244.529,-124"/>
<polygon fill="midnightblue" stroke="midnightblue" points="244.986,-127.5 254.986,-124 244.986,-120.5 244.986,-127.5"/>
</g>
<!-- Node5&#45;&gt;Node4 -->
<g id="edge5" class="edge"><title>Node5&#45;&gt;Node4</title>
<path fill="none" stroke="midnightblue" d="M172.325,-50.787C191.167,-52.7446 217.108,-55.4398 240.65,-57.8857"/>
<polygon fill="midnightblue" stroke="midnightblue" points="240.604,-61.3997 250.912,-58.9519 241.327,-54.4372 240.604,-61.3997"/>
</g>
</g>
</svg>
